<svg preserveAspectRatio="none" width="100%" height="100%" overflow="visible" style="display: block;" viewBox="0 0 15 15" fill="none" xmlns="http://www.w3.org/2000/svg">
<g id="iconstack.io - (Ic Fluent Attach 24 Regular)">
<path id="Vector" d="M7.35762 2.34004C8.821 0.875305 11.1954 0.875305 12.6599 2.33977C14.0868 3.76669 14.1234 6.05744 12.7696 7.52862L12.652 7.652L7.152 13.1509L7.12912 13.1698C6.21588 13.9927 4.80713 13.9648 3.92752 13.0852C3.10314 12.2608 3.02681 10.9716 3.69856 10.0612C3.71314 10.0328 3.7308 10.0055 3.75156 9.97981L3.78503 9.9425L3.83934 9.88769L3.92752 9.79525L3.92934 9.79706L8.57669 5.1381C8.74288 4.97146 9.00325 4.95599 9.18694 5.0919L9.23962 5.13722C9.40625 5.30341 9.42169 5.5638 9.28581 5.74749L9.2405 5.80013L4.49384 10.5583C4.04532 11.1056 4.07649 11.9145 4.58737 12.4254C5.10553 12.9435 5.93031 12.9682 6.47769 12.4994L11.9981 6.98031C13.0953 5.88181 13.0953 4.10103 11.9969 3.00268C10.9329 1.93865 9.22844 1.90541 8.12437 2.90293L8.0195 3.00268L8.01162 3.01162L2.05143 8.97181C1.86837 9.15487 1.57158 9.15487 1.38851 8.97181C1.2221 8.80544 1.20697 8.545 1.34313 8.3615L1.38851 8.30894L7.35656 2.33977L7.35762 2.34004Z" fill="#444653"/>
</g>
</svg>
